<?xml version="1.0" standalone="yes"?>

<svg version="1.1" viewBox="0.0 0.0 240.0 240.0" fill="none" stroke="none" stroke-linecap="square" stroke-miterlimit="10" xmlns="http://www.w3.org/2000/svg" xmlns:xlink="http://www.w3.org/1999/xlink"><clipPath id="p.0"><path d="m0 0l240.0 0l0 240.0l-240.0 0l0 -240.0z" clip-rule="nonzero"></path></clipPath><g clip-path="url(#p.0)"><path fill="#000000" fill-opacity="0.0" d="m0 0l240.0 0l0 240.0l-240.0 0z" fill-rule="nonzero"></path><path fill="#000000" fill-opacity="0.0" d="m60.72441 0l118.55118 0l0 55.622047l-118.55118 0z" fill-rule="nonzero"></path><path fill="#000000" d="m99.16539 31.423748q0 4.3125 -1.34375 7.515625q-1.34375 3.1875 -3.796875 5.28125q-2.4375 2.078125 -5.84375 3.109375q-3.40625 1.03125 -7.5 1.03125q-2.015625 0 -4.4375 -0.171875q-2.421875 -0.15625 -4.390625 -0.640625l0 -32.25q1.96875 -0.484375 4.390625 -0.640625q2.421875 -0.171875 4.4375 -0.171875q4.09375 0 7.5 1.03125q3.40625 1.03125 5.84375 3.125q2.453125 2.078125 3.796875 5.28125q1.34375 3.1875 1.34375 7.5zm-18.09375 12.859375q6.625 0 9.890625 -3.375q3.265625 -3.390625 3.265625 -9.484375q0 -6.09375 -3.265625 -9.46875q-3.265625 -3.390625 -9.890625 -3.390625q-1.96875 0 -3.046875 0.046875q-1.078125 0.046875 -1.515625 0.09375l0 25.4375q0.4375 0.046875 1.515625 0.09375q1.078125 0.046875 3.046875 0.046875zm33.161575 0.578125q1.59375 0 2.8125 -0.0625q1.21875 -0.078125 2.046875 -0.265625l0 -7.4375q-0.484375 -0.25 -1.5625 -0.40625q-1.078125 -0.171875 -2.625 -0.171875q-1.0 0 -2.125 0.140625q-1.125 0.140625 -2.0625 0.59375q-0.9375 0.453125 -1.5625 1.25q-0.625 0.796875 -0.625 2.09375q0 2.390625 1.53125 3.328125q1.53125 0.9375 4.171875 0.9375zm-0.375 -22.359375q2.6875 0 4.53125 0.703125q1.84375 0.6875 2.96875 1.96875q1.140625 1.265625 1.609375 3.015625q0.484375 1.75 0.484375 3.859375l0 15.59375q-0.578125 0.09375 -1.609375 0.265625q-1.03125 0.171875 -2.328125 0.3125q-1.296875 0.140625 -2.8125 0.265625q-1.5 0.125 -2.984375 0.125q-2.125 0 -3.90625 -0.4375q-1.765625 -0.4375 -3.0625 -1.359375q-1.296875 -0.9375 -2.015625 -2.46875q-0.71875 -1.546875 -0.71875 -3.703125q0 -2.0625 0.84375 -3.546875q0.84375 -1.5 2.28125 -2.40625q1.4375 -0.90625 3.359375 -1.34375q1.921875 -0.4375 4.03125 -0.4375q0.671875 0 1.390625 0.078125q0.71875 0.0625 1.359375 0.1875q0.65625 0.125 1.125 0.21875q0.484375 0.09375 0.6875 0.140625l0 -1.25q0 -1.09375 -0.25 -2.171875q-0.234375 -1.09375 -0.859375 -1.921875q-0.625 -0.84375 -1.703125 -1.34375q-1.078125 -0.515625 -2.8125 -0.515625q-2.203125 0 -3.859375 0.3125q-1.65625 0.3125 -2.46875 0.65625l-0.53125 -3.703125q0.859375 -0.375 2.875 -0.734375q2.015625 -0.359375 4.375 -0.359375zm14.056046 30.234375q0.53125 0.234375 1.375 0.453125q0.84375 0.21875 1.65625 0.21875q2.640625 0 4.125 -1.1875q1.484375 -1.171875 2.6875 -3.796875q-3.015625 -5.765625 -5.640625 -12.21875q-2.609375 -6.46875 -4.34375 -13.078125l4.796875 0q0.53125 2.15625 1.265625 4.65625q0.75 2.484375 1.65625 5.125q0.921875 2.640625 1.96875 5.28125q1.0625 2.640625 2.21875 5.09375q1.828125 -5.046875 3.171875 -9.984375q1.34375 -4.953125 2.546875 -10.171875l4.59375 0q-1.71875 7.046875 -3.828125 13.5625q-2.109375 6.5 -4.5625 12.15625q-0.96875 2.15625 -2.0 3.71875q-1.03125 1.5625 -2.28125 2.5625q-1.234375 1.015625 -2.796875 1.5q-1.5625 0.484375 -3.53125 0.484375q-0.53125 0 -1.109375 -0.078125q-0.578125 -0.078125 -1.125 -0.203125q-0.546875 -0.109375 -1.015625 -0.25q-0.453125 -0.140625 -0.640625 -0.25l0.8125 -3.59375zm32.590424 -7.875q2.75 0 4.0625 -0.71875q1.328125 -0.71875 1.328125 -2.296875q0 -1.640625 -1.296875 -2.59375q-1.296875 -0.96875 -4.28125 -2.15625q-1.4375 -0.578125 -2.765625 -1.171875q-1.3125 -0.609375 -2.28125 -1.421875q-0.953125 -0.828125 -1.53125 -1.96875q-0.578125 -1.15625 -0.578125 -2.84375q0 -3.3125 2.453125 -5.25q2.453125 -1.9375 6.671875 -1.9375q1.0625 0 2.109375 0.125q1.0625 0.109375 1.96875 0.28125q0.921875 0.15625 1.609375 0.359375q0.703125 0.1875 1.078125 0.328125l-0.8125 3.84375q-0.71875 -0.390625 -2.265625 -0.796875q-1.53125 -0.40625 -3.6875 -0.40625q-1.875 0 -3.265625 0.75q-1.390625 0.734375 -1.390625 2.328125q0 0.8125 0.3125 1.4375q0.3125 0.625 0.953125 1.125q0.65625 0.5 1.609375 0.9375q0.96875 0.4375 2.3125 0.90625q1.78125 0.671875 3.171875 1.328125q1.390625 0.640625 2.375 1.515625q0.984375 0.859375 1.5 2.09375q0.53125 1.21875 0.53125 2.984375q0 3.46875 -2.5625 5.25q-2.5625 1.765625 -7.328125 1.765625q-3.296875 0 -5.171875 -0.5625q-1.875 -0.546875 -2.546875 -0.828125l0.8125 -3.84375q0.765625 0.28125 2.4375 0.859375q1.6875 0.578125 4.46875 0.578125z" fill-rule="nonzero"></path><path fill="#000000" fill-opacity="0.0" d="m60.72441 184.37796l118.55118 0l0 55.62204l-118.55118 0z" fill-rule="nonzero"></path><path fill="#000000" d="m99.16539 215.8017q0 4.3125 -1.34375 7.515625q-1.34375 3.1875 -3.796875 5.28125q-2.4375 2.078125 -5.84375 3.109375q-3.40625 1.03125 -7.5 1.03125q-2.015625 0 -4.4375 -0.171875q-2.421875 -0.15625 -4.390625 -0.640625l0 -32.25q1.96875 -0.484375 4.390625 -0.640625q2.421875 -0.171875 4.4375 -0.171875q4.09375 0 7.5 1.03125q3.40625 1.03125 5.84375 3.125q2.453125 2.078125 3.796875 5.28125q1.34375 3.1875 1.34375 7.5zm-18.09375 12.859375q6.625 0 9.890625 -3.375q3.265625 -3.390625 3.265625 -9.484375q0 -6.09375 -3.265625 -9.46875q-3.265625 -3.390625 -9.890625 -3.390625q-1.96875 0 -3.046875 0.046875q-1.078125 0.046875 -1.515625 0.09375l0 25.4375q0.4375 0.046875 1.515625 0.09375q1.078125 0.046875 3.046875 0.046875zm33.161575 0.578125q1.59375 0 2.8125 -0.0625q1.21875 -0.078125 2.046875 -0.265625l0 -7.4375q-0.484375 -0.25 -1.5625 -0.40625q-1.078125 -0.171875 -2.625 -0.171875q-1.0 0 -2.125 0.140625q-1.125 0.140625 -2.0625 0.59375q-0.9375 0.453125 -1.5625 1.25q-0.625 0.796875 -0.625 2.09375q0 2.390625 1.53125 3.328125q1.53125 0.9375 4.171875 0.9375zm-0.375 -22.359375q2.6875 0 4.53125 0.703125q1.84375 0.6875 2.96875 1.96875q1.140625 1.265625 1.609375 3.015625q0.484375 1.75 0.484375 3.859375l0 15.59375q-0.578125 0.09375 -1.609375 0.265625q-1.03125 0.171875 -2.328125 0.3125q-1.296875 0.140625 -2.8125 0.265625q-1.5 0.125 -2.984375 0.125q-2.125 0 -3.90625 -0.4375q-1.765625 -0.4375 -3.0625 -1.359375q-1.296875 -0.9375 -2.015625 -2.46875q-0.71875 -1.546875 -0.71875 -3.703125q0 -2.0625 0.84375 -3.546875q0.84375 -1.5 2.28125 -2.40625q1.4375 -0.90625 3.359375 -1.34375q1.921875 -0.4375 4.03125 -0.4375q0.671875 0 1.390625 0.078125q0.71875 0.0625 1.359375 0.1875q0.65625 0.125 1.125 0.21875q0.484375 0.09375 0.6875 0.140625l0 -1.25q0 -1.09375 -0.25 -2.171875q-0.234375 -1.09375 -0.859375 -1.921875q-0.625 -0.84375 -1.703125 -1.34375q-1.078125 -0.515625 -2.8125 -0.515625q-2.203125 0 -3.859375 0.3125q-1.65625 0.3125 -2.46875 0.65625l-0.53125 -3.703125q0.859375 -0.375 2.875 -0.734375q2.015625 -0.359375 4.375 -0.359375zm14.056046 30.234375q0.53125 0.234375 1.375 0.453125q0.84375 0.21875 1.65625 0.21875q2.640625 0 4.125 -1.1875q1.484375 -1.171875 2.6875 -3.796875q-3.015625 -5.765625 -5.640625 -12.21875q-2.609375 -6.46875 -4.34375 -13.078125l4.796875 0q0.53125 2.15625 1.265625 4.65625q0.75 2.484375 1.65625 5.125q0.921875 2.640625 1.96875 5.28125q1.0625 2.640625 2.21875 5.09375q1.828125 -5.046875 3.171875 -9.984375q1.34375 -4.953125 2.546875 -10.171875l4.59375 0q-1.71875 7.046875 -3.828125 13.5625q-2.109375 6.5 -4.5625 12.15625q-0.96875 2.15625 -2.0 3.71875q-1.03125 1.5625 -2.28125 2.5625q-1.234375 1.015625 -2.796875 1.5q-1.5625 0.484375 -3.53125 0.484375q-0.53125 0 -1.109375 -0.078125q-0.578125 -0.078125 -1.125 -0.203125q-0.546875 -0.109375 -1.015625 -0.25q-0.453125 -0.140625 -0.640625 -0.25l0.8125 -3.59375zm32.590424 -7.875q2.75 0 4.0625 -0.71875q1.328125 -0.71875 1.328125 -2.296875q0 -1.640625 -1.296875 -2.59375q-1.296875 -0.96875 -4.28125 -2.15625q-1.4375 -0.578125 -2.765625 -1.171875q-1.3125 -0.609375 -2.28125 -1.421875q-0.953125 -0.828125 -1.53125 -1.96875q-0.578125 -1.15625 -0.578125 -2.84375q0 -3.3125 2.453125 -5.25q2.453125 -1.9375 6.671875 -1.9375q1.0625 0 2.109375 0.125q1.0625 0.109375 1.96875 0.28125q0.921875 0.15625 1.609375 0.359375q0.703125 0.1875 1.078125 0.328125l-0.8125 3.84375q-0.71875 -0.390625 -2.265625 -0.796875q-1.53125 -0.40625 -3.6875 -0.40625q-1.875 0 -3.265625 0.75q-1.390625 0.734375 -1.390625 2.328125q0 0.8125 0.3125 1.4375q0.3125 0.625 0.953125 1.125q0.65625 0.5 1.609375 0.9375q0.96875 0.4375 2.3125 0.90625q1.78125 0.671875 3.171875 1.328125q1.390625 0.640625 2.375 1.515625q0.984375 0.859375 1.5 2.09375q0.53125 1.21875 0.53125 2.984375q0 3.46875 -2.5625 5.25q-2.5625 1.765625 -7.328125 1.765625q-3.296875 0 -5.171875 -0.5625q-1.875 -0.546875 -2.546875 -0.828125l0.8125 -3.84375q0.765625 0.28125 2.4375 0.859375q1.6875 0.578125 4.46875 0.578125z" fill-rule="nonzero"></path><path fill="#000000" fill-opacity="0.0" d="m144.0 64.0l0 128.0" fill-rule="nonzero"></path><path stroke="#073763" stroke-width="4.0" stroke-linejoin="round" stroke-linecap="butt" d="m144.0 64.0l0 104.0" fill-rule="evenodd"></path><path fill="#073763" stroke="#073763" stroke-width="4.0" stroke-linecap="butt" d="m137.39307 168.0l6.6069336 18.15239l6.6069336 -18.15239z" fill-rule="evenodd"></path><path fill="#000000" fill-opacity="0.0" d="m96.0 192.0l0 -128.0" fill-rule="nonzero"></path><path stroke="#073763" stroke-width="4.0" stroke-linejoin="round" stroke-linecap="butt" d="m96.0 192.0l0 -104.0" fill-rule="evenodd"></path><path fill="#073763" stroke="#073763" stroke-width="4.0" stroke-linecap="butt" d="m102.606926 88.0l-6.606926 -18.15239l-6.606926 18.15239z" fill-rule="evenodd"></path></g></svg>

